<mxfile host="65bd71144e">
    <diagram id="ynslTaBXFwaWdOT28Tcj" name="Domain">
        <mxGraphModel dx="1333" dy="1180" grid="1" gridSize="10" guides="1" tooltips="1" connect="1" arrows="1" fold="1" page="0" pageScale="1" pageWidth="850" pageHeight="1100" math="0" shadow="0">
            <root>
                <mxCell id="0"/>
                <mxCell id="1" parent="0"/>
                <mxCell id="2" value="" style="shape=image;verticalLabelPosition=bottom;labelBackgroundColor=default;verticalAlign=top;aspect=fixed;imageAspect=0;image=https://dotnettutorials.net/wp-content/uploads/2019/10/c-users-pranaya-pictures-understanding-the-builde.png;" parent="1" vertex="1">
                    <mxGeometry x="210" width="265.33" height="270" as="geometry"/>
                </mxCell>
                <UserObject label="&lt;span style=&quot;color: rgb(0, 0, 0); font-family: arial, helvetica, sans-serif; font-size: 15px; text-align: justify; background-color: rgb(255, 255, 255);&quot;&gt;&amp;nbsp;Suppose we want to develop an application for displaying the reports. The reports we need to display either in Excel or in PDF format. That means, we have two types of representation of the reports. In order to understand this better, please have a look at the following diagram.&lt;/span&gt;" placeholders="1" name="Variable" id="3">
                    <mxCell style="text;html=1;strokeColor=none;fillColor=none;align=center;verticalAlign=middle;whiteSpace=wrap;overflow=hidden;" parent="1" vertex="1">
                        <mxGeometry x="80" y="-110" width="490" height="120" as="geometry"/>
                    </mxCell>
                </UserObject>
                <mxCell id="4" value="" style="shape=image;verticalLabelPosition=bottom;labelBackgroundColor=default;verticalAlign=top;aspect=fixed;imageAspect=0;image=https://dotnettutorials.net/wp-content/uploads/2019/10/c-users-pranaya-pictures-bilder-design-pattern-re.png;" parent="1" vertex="1">
                    <mxGeometry x="210" y="290" width="265.33" height="276.5" as="geometry"/>
                </mxCell>
                <mxCell id="5" value="&lt;h5 style=&quot;box-sizing: border-box; border: 0px; font-size: 1.2rem; font-style: normal; font-weight: 500; margin: 0px 0px 20px; outline: 0px; padding: 0px; vertical-align: baseline; clear: both; color: rgb(58, 58, 58); line-height: 1.6; font-family: -apple-system, BlinkMacSystemFont, &amp;quot;Segoe UI&amp;quot;, Roboto, &amp;quot;Helvetica Neue&amp;quot;, Arial, &amp;quot;Noto Sans&amp;quot;, sans-serif, &amp;quot;Apple Color Emoji&amp;quot;, &amp;quot;Segoe UI Emoji&amp;quot;, &amp;quot;Segoe UI Symbol&amp;quot;, &amp;quot;Noto Color Emoji&amp;quot;; font-variant-ligatures: normal; font-variant-caps: normal; letter-spacing: normal; orphans: 2; text-align: left; text-indent: 0px; text-transform: none; widows: 2; word-spacing: 0px; -webkit-text-stroke-width: 0px; background-color: rgb(255, 255, 255); text-decoration-thickness: initial; text-decoration-style: initial; text-decoration-color: initial;&quot;&gt;&lt;span style=&quot;box-sizing: border-box; border: 0px; font-size: 18px; font-style: inherit; font-weight: inherit; margin: 0px; outline: 0px; padding: 0px; vertical-align: baseline; color: rgb(0, 0, 0);&quot;&gt;&lt;strong style=&quot;box-sizing: border-box; border: 0px; font-size: 18px; font-style: inherit; font-weight: bolder; margin: 0px; outline: 0px; padding: 0px; vertical-align: baseline;&quot;&gt;&lt;span style=&quot;box-sizing: border-box; border: 0px; font-size: 18px; font-style: inherit; font-weight: inherit; margin: 0px; outline: 0px; padding: 0px; vertical-align: baseline; font-family: arial, helvetica, sans-serif;&quot;&gt;Understanding the UML (or Class) Diagram of Builder Design Pattern in C#&lt;/span&gt;&lt;/strong&gt;&lt;/span&gt;&lt;/h5&gt;" style="text;whiteSpace=wrap;html=1;" parent="1" vertex="1">
                    <mxGeometry x="170" y="590" width="400" height="70" as="geometry"/>
                </mxCell>
                <mxCell id="6" value="" style="shape=image;verticalLabelPosition=bottom;labelBackgroundColor=default;verticalAlign=top;aspect=fixed;imageAspect=0;image=https://dotnettutorials.net/wp-content/uploads/2019/10/Understanding-the-Class-Diagram-of-Builder-Design-Pattern-in-C.png;" parent="1" vertex="1">
                    <mxGeometry x="190" y="710" width="338.69" height="170" as="geometry"/>
                </mxCell>
                <mxCell id="7" value="&lt;font style=&quot;font-size: 14px;&quot;&gt;&lt;b&gt;According to GoF, the Builder Design Pattern builds a complex object using many simple objects and using a step-by-step approach.&amp;nbsp;&lt;br&gt;The Process of constructing a complex object should be generic so that the same construction process can be used to create different representations of the same complex object.&lt;/b&gt;&lt;/font&gt;" style="text;whiteSpace=wrap;html=1;fillColor=none;strokeColor=none;" parent="1" vertex="1">
                    <mxGeometry x="80" y="-250" width="590" height="90" as="geometry"/>
                </mxCell>
                <mxCell id="8" value="&lt;p style=&quot;box-sizing: border-box; border: 0px; font-size: 15px; font-style: normal; font-weight: 400; margin: 0px 0px 1.6em; outline: 0px; padding: 0px; vertical-align: baseline; color: rgb(33, 37, 41); font-family: -apple-system, BlinkMacSystemFont, &amp;quot;Segoe UI&amp;quot;, Roboto, &amp;quot;Helvetica Neue&amp;quot;, Arial, &amp;quot;Noto Sans&amp;quot;, sans-serif, &amp;quot;Apple Color Emoji&amp;quot;, &amp;quot;Segoe UI Emoji&amp;quot;, &amp;quot;Segoe UI Symbol&amp;quot;, &amp;quot;Noto Color Emoji&amp;quot;; font-variant-ligatures: normal; font-variant-caps: normal; letter-spacing: normal; orphans: 2; text-indent: 0px; text-transform: none; widows: 2; word-spacing: 0px; -webkit-text-stroke-width: 0px; background-color: rgb(255, 255, 255); text-decoration-thickness: initial; text-decoration-style: initial; text-decoration-color: initial; text-align: justify;&quot;&gt;&lt;span style=&quot;box-sizing: border-box; border: 0px; font-size: 12pt; font-style: inherit; font-weight: inherit; margin: 0px; outline: 0px; padding: 0px; vertical-align: baseline; font-family: arial, helvetica, sans-serif; color: rgb(0, 0, 0);&quot;&gt;In order to separate the construction process from its representation, the builder design pattern Involve four components. They are as follows.&amp;nbsp;&lt;/span&gt;&lt;/p&gt;&lt;ol style=&quot;box-sizing: border-box; border: 0px; font-size: 15px; font-style: normal; font-weight: 400; margin: 0px 0px 1rem 3em; outline: 0px; padding: 0px; vertical-align: baseline; list-style: decimal; color: rgb(33, 37, 41); font-family: -apple-system, BlinkMacSystemFont, &amp;quot;Segoe UI&amp;quot;, Roboto, &amp;quot;Helvetica Neue&amp;quot;, Arial, &amp;quot;Noto Sans&amp;quot;, sans-serif, &amp;quot;Apple Color Emoji&amp;quot;, &amp;quot;Segoe UI Emoji&amp;quot;, &amp;quot;Segoe UI Symbol&amp;quot;, &amp;quot;Noto Color Emoji&amp;quot;; font-variant-ligatures: normal; font-variant-caps: normal; letter-spacing: normal; orphans: 2; text-align: left; text-indent: 0px; text-transform: none; widows: 2; word-spacing: 0px; -webkit-text-stroke-width: 0px; background-color: rgb(255, 255, 255); text-decoration-thickness: initial; text-decoration-style: initial; text-decoration-color: initial;&quot;&gt;&lt;li style=&quot;box-sizing: border-box; border: 0px; font-size: 15px; font-style: inherit; font-weight: inherit; margin: 0px; outline: 0px; padding: 0px; vertical-align: baseline; text-align: justify;&quot;&gt;&lt;span style=&quot;box-sizing: border-box; border: 0px; font-size: 12pt; font-style: inherit; font-weight: inherit; margin: 0px; outline: 0px; padding: 0px; vertical-align: baseline; font-family: arial, helvetica, sans-serif; color: rgb(0, 0, 0);&quot;&gt;&lt;strong style=&quot;box-sizing: border-box; border: 0px; font-size: 16px; font-style: inherit; font-weight: bolder; margin: 0px; outline: 0px; padding: 0px; vertical-align: baseline;&quot;&gt;Abstract Builder:&lt;/strong&gt;&lt;span&gt;&amp;nbsp;&lt;/span&gt;The Builder is an interface that defines all the steps which are used to make the concrete product.&amp;nbsp;&lt;/span&gt;&lt;/li&gt;&lt;li style=&quot;box-sizing: border-box; border: 0px; font-size: 15px; font-style: inherit; font-weight: inherit; margin: 0px; outline: 0px; padding: 0px; vertical-align: baseline; text-align: justify;&quot;&gt;&lt;span style=&quot;box-sizing: border-box; border: 0px; font-size: 12pt; font-style: inherit; font-weight: inherit; margin: 0px; outline: 0px; padding: 0px; vertical-align: baseline; font-family: arial, helvetica, sans-serif; color: rgb(0, 0, 0);&quot;&gt;&lt;strong style=&quot;box-sizing: border-box; border: 0px; font-size: 16px; font-style: inherit; font-weight: bolder; margin: 0px; outline: 0px; padding: 0px; vertical-align: baseline;&quot;&gt;Concrete Builder&lt;/strong&gt;: The Concrete Builder Classes implements the Abstract Builder interface and provides implementation to all the abstract methods. The Concrete Builder is responsible for constructing and assembling the individual parts of the product by implementing the Builder interface. It also defines and tracks the representation it creates.&lt;/span&gt;&lt;/li&gt;&lt;li style=&quot;box-sizing: border-box; border: 0px; font-size: 15px; font-style: inherit; font-weight: inherit; margin: 0px; outline: 0px; padding: 0px; vertical-align: baseline; text-align: justify;&quot;&gt;&lt;span style=&quot;box-sizing: border-box; border: 0px; font-size: 12pt; font-style: inherit; font-weight: inherit; margin: 0px; outline: 0px; padding: 0px; vertical-align: baseline; font-family: arial, helvetica, sans-serif; color: rgb(0, 0, 0);&quot;&gt;&lt;strong style=&quot;box-sizing: border-box; border: 0px; font-size: 16px; font-style: inherit; font-weight: bolder; margin: 0px; outline: 0px; padding: 0px; vertical-align: baseline;&quot;&gt;Director:&lt;/strong&gt;&lt;span&gt;&amp;nbsp;&lt;/span&gt;The Director takes those individual processes from the Builder and defines the sequence to build the product.&lt;/span&gt;&lt;/li&gt;&lt;li style=&quot;box-sizing: border-box; border: 0px; font-size: 15px; font-style: inherit; font-weight: inherit; margin: 0px; outline: 0px; padding: 0px; vertical-align: baseline; text-align: justify;&quot;&gt;&lt;span style=&quot;box-sizing: border-box; border: 0px; font-size: 12pt; font-style: inherit; font-weight: inherit; margin: 0px; outline: 0px; padding: 0px; vertical-align: baseline; font-family: arial, helvetica, sans-serif; color: rgb(0, 0, 0);&quot;&gt;&lt;strong style=&quot;box-sizing: border-box; border: 0px; font-size: 16px; font-style: inherit; font-weight: bolder; margin: 0px; outline: 0px; padding: 0px; vertical-align: baseline;&quot;&gt;Product:&lt;/strong&gt;&lt;span&gt;&amp;nbsp;&lt;/span&gt;The Product is a class and we want to create this product object using the builder design pattern. This class defines different parts that will make the product.&lt;/span&gt;&lt;/li&gt;&lt;/ol&gt;" style="text;whiteSpace=wrap;html=1;fontSize=14;" parent="1" vertex="1">
                    <mxGeometry x="120" y="920" width="570" height="330" as="geometry"/>
                </mxCell>
                <mxCell id="9" value="&lt;p style=&quot;box-sizing: border-box; border: 0px; font-size: 15px; font-style: normal; font-weight: 400; margin: 0px 0px 1.6em; outline: 0px; padding: 0px; vertical-align: baseline; color: rgb(33, 37, 41); font-family: -apple-system, BlinkMacSystemFont, &amp;quot;Segoe UI&amp;quot;, Roboto, &amp;quot;Helvetica Neue&amp;quot;, Arial, &amp;quot;Noto Sans&amp;quot;, sans-serif, &amp;quot;Apple Color Emoji&amp;quot;, &amp;quot;Segoe UI Emoji&amp;quot;, &amp;quot;Segoe UI Symbol&amp;quot;, &amp;quot;Noto Color Emoji&amp;quot;; font-variant-ligatures: normal; font-variant-caps: normal; letter-spacing: normal; orphans: 2; text-align: left; text-indent: 0px; text-transform: none; widows: 2; word-spacing: 0px; -webkit-text-stroke-width: 0px; background-color: rgb(255, 255, 255); text-decoration-thickness: initial; text-decoration-style: initial; text-decoration-color: initial;&quot;&gt;&lt;img style=&quot;box-sizing: border-box; border: 0px none; height: auto; max-width: 100%; vertical-align: middle;&quot; sizes=&quot;(max-width: 831px) 100vw, 831px&quot; srcset=&quot;https://dotnettutorials.net/wp-content/uploads/2019/10/Builder-Design-Pattern-UML-Diagram.png 1127w, https://dotnettutorials.net/wp-content/uploads/2019/10/Builder-Design-Pattern-UML-Diagram-300x151.png 300w, https://dotnettutorials.net/wp-content/uploads/2019/10/Builder-Design-Pattern-UML-Diagram-1024x515.png 1024w, https://dotnettutorials.net/wp-content/uploads/2019/10/Builder-Design-Pattern-UML-Diagram-768x386.png 768w&quot; height=&quot;418&quot; width=&quot;831&quot; alt=&quot;Builder Design Pattern UML Diagram&quot; title=&quot;Builder Design Pattern UML Diagram&quot; class=&quot;alignnone wp-image-35906&quot; loading=&quot;lazy&quot; decoding=&quot;async&quot; src=&quot;https://dotnettutorials.net/wp-content/uploads/2019/10/Builder-Design-Pattern-UML-Diagram.png&quot;&gt;&lt;/p&gt;&lt;div style=&quot;box-sizing: border-box; border: 0px; font-size: 15px; font-style: normal; font-weight: 400; margin: 8px 0px; outline: 0px; padding: 0px; vertical-align: baseline; color: rgb(33, 37, 41); font-family: -apple-system, BlinkMacSystemFont, &amp;quot;Segoe UI&amp;quot;, Roboto, &amp;quot;Helvetica Neue&amp;quot;, Arial, &amp;quot;Noto Sans&amp;quot;, sans-serif, &amp;quot;Apple Color Emoji&amp;quot;, &amp;quot;Segoe UI Emoji&amp;quot;, &amp;quot;Segoe UI Symbol&amp;quot;, &amp;quot;Noto Color Emoji&amp;quot;; font-variant-ligatures: normal; font-variant-caps: normal; letter-spacing: normal; orphans: 2; text-align: left; text-indent: 0px; text-transform: none; widows: 2; word-spacing: 0px; -webkit-text-stroke-width: 0px; background-color: rgb(255, 255, 255); text-decoration-thickness: initial; text-decoration-style: initial; text-decoration-color: initial; clear: both;&quot; class=&quot;code-block code-block-12&quot;&gt;&lt;/div&gt;&lt;p style=&quot;box-sizing: border-box; border: 0px; font-size: 15px; font-style: normal; font-weight: 400; margin: 0px 0px 1.6em; outline: 0px; padding: 0px; vertical-align: baseline; color: rgb(33, 37, 41); font-family: -apple-system, BlinkMacSystemFont, &amp;quot;Segoe UI&amp;quot;, Roboto, &amp;quot;Helvetica Neue&amp;quot;, Arial, &amp;quot;Noto Sans&amp;quot;, sans-serif, &amp;quot;Apple Color Emoji&amp;quot;, &amp;quot;Segoe UI Emoji&amp;quot;, &amp;quot;Segoe UI Symbol&amp;quot;, &amp;quot;Noto Color Emoji&amp;quot;; font-variant-ligatures: normal; font-variant-caps: normal; letter-spacing: normal; orphans: 2; text-align: left; text-indent: 0px; text-transform: none; widows: 2; word-spacing: 0px; -webkit-text-stroke-width: 0px; background-color: rgb(255, 255, 255); text-decoration-thickness: initial; text-decoration-style: initial; text-decoration-color: initial;&quot;&gt;&lt;strong style=&quot;box-sizing: border-box; border: 0px; font-size: 15px; font-style: inherit; font-weight: bolder; margin: 0px; outline: 0px; padding: 0px; vertical-align: baseline;&quot;&gt;&lt;span style=&quot;box-sizing: border-box; border: 0px; font-size: 15px; font-style: inherit; font-weight: inherit; margin: 0px; outline: 0px; padding: 0px; vertical-align: baseline; font-family: arial, helvetica, sans-serif; color: rgb(0, 0, 0);&quot;&gt;Builder Design Pattern Components in Our Example&lt;/span&gt;&lt;/strong&gt;&lt;/p&gt;&lt;ol style=&quot;box-sizing: border-box; border: 0px; font-size: 15px; font-style: normal; font-weight: 400; margin: 0px 0px 1rem 3em; outline: 0px; padding: 0px; vertical-align: baseline; list-style: decimal; color: rgb(33, 37, 41); font-family: -apple-system, BlinkMacSystemFont, &amp;quot;Segoe UI&amp;quot;, Roboto, &amp;quot;Helvetica Neue&amp;quot;, Arial, &amp;quot;Noto Sans&amp;quot;, sans-serif, &amp;quot;Apple Color Emoji&amp;quot;, &amp;quot;Segoe UI Emoji&amp;quot;, &amp;quot;Segoe UI Symbol&amp;quot;, &amp;quot;Noto Color Emoji&amp;quot;; font-variant-ligatures: normal; font-variant-caps: normal; letter-spacing: normal; orphans: 2; text-align: left; text-indent: 0px; text-transform: none; widows: 2; word-spacing: 0px; -webkit-text-stroke-width: 0px; background-color: rgb(255, 255, 255); text-decoration-thickness: initial; text-decoration-style: initial; text-decoration-color: initial;&quot;&gt;&lt;li style=&quot;box-sizing: border-box; border: 0px; font-size: 15px; font-style: inherit; font-weight: inherit; margin: 0px; outline: 0px; padding: 0px; vertical-align: baseline;&quot;&gt;&lt;span style=&quot;box-sizing: border-box; border: 0px; font-size: 15px; font-style: inherit; font-weight: inherit; margin: 0px; outline: 0px; padding: 0px; vertical-align: baseline; color: rgb(0, 0, 255);&quot;&gt;&lt;strong style=&quot;box-sizing: border-box; border: 0px; font-size: 15px; font-style: inherit; font-weight: bolder; margin: 0px; outline: 0px; padding: 0px; vertical-align: baseline;&quot;&gt;&lt;span style=&quot;box-sizing: border-box; border: 0px; font-size: 15px; font-style: inherit; font-weight: inherit; margin: 0px; outline: 0px; padding: 0px; vertical-align: baseline; font-family: arial, helvetica, sans-serif;&quot;&gt;&lt;span style=&quot;box-sizing: border-box; border: 0px; font-size: 15px; font-style: inherit; font-weight: inherit; margin: 0px; outline: 0px; padding: 0px; vertical-align: baseline; color: rgb(255, 0, 0);&quot;&gt;Client:&lt;/span&gt;&lt;span&gt;&amp;nbsp;&lt;/span&gt;Main Method of Program Class&lt;/span&gt;&lt;/strong&gt;&lt;/span&gt;&lt;/li&gt;&lt;li style=&quot;box-sizing: border-box; border: 0px; font-size: 15px; font-style: inherit; font-weight: inherit; margin: 0px; outline: 0px; padding: 0px; vertical-align: baseline;&quot;&gt;&lt;span style=&quot;box-sizing: border-box; border: 0px; font-size: 15px; font-style: inherit; font-weight: inherit; margin: 0px; outline: 0px; padding: 0px; vertical-align: baseline; color: rgb(0, 0, 255);&quot;&gt;&lt;strong style=&quot;box-sizing: border-box; border: 0px; font-size: 15px; font-style: inherit; font-weight: bolder; margin: 0px; outline: 0px; padding: 0px; vertical-align: baseline;&quot;&gt;&lt;span style=&quot;box-sizing: border-box; border: 0px; font-size: 15px; font-style: inherit; font-weight: inherit; margin: 0px; outline: 0px; padding: 0px; vertical-align: baseline; font-family: arial, helvetica, sans-serif;&quot;&gt;&lt;span style=&quot;box-sizing: border-box; border: 0px; font-size: 15px; font-style: inherit; font-weight: inherit; margin: 0px; outline: 0px; padding: 0px; vertical-align: baseline; color: rgb(255, 0, 0);&quot;&gt;Builder:&lt;/span&gt;&lt;span&gt;&amp;nbsp;&lt;/span&gt;ReportBuilder.cs&lt;/span&gt;&lt;/strong&gt;&lt;/span&gt;&lt;/li&gt;&lt;li style=&quot;box-sizing: border-box; border: 0px; font-size: 15px; font-style: inherit; font-weight: inherit; margin: 0px; outline: 0px; padding: 0px; vertical-align: baseline;&quot;&gt;&lt;span style=&quot;box-sizing: border-box; border: 0px; font-size: 15px; font-style: inherit; font-weight: inherit; margin: 0px; outline: 0px; padding: 0px; vertical-align: baseline; color: rgb(0, 0, 255);&quot;&gt;&lt;strong style=&quot;box-sizing: border-box; border: 0px; font-size: 15px; font-style: inherit; font-weight: bolder; margin: 0px; outline: 0px; padding: 0px; vertical-align: baseline;&quot;&gt;&lt;span style=&quot;box-sizing: border-box; border: 0px; font-size: 15px; font-style: inherit; font-weight: inherit; margin: 0px; outline: 0px; padding: 0px; vertical-align: baseline; font-family: arial, helvetica, sans-serif;&quot;&gt;&lt;span style=&quot;box-sizing: border-box; border: 0px; font-size: 15px; font-style: inherit; font-weight: inherit; margin: 0px; outline: 0px; padding: 0px; vertical-align: baseline; color: rgb(255, 0, 0);&quot;&gt;Concrete Builder:&lt;/span&gt;&lt;span&gt;&amp;nbsp;&lt;/span&gt;ExcelReport.cs and PDFReport.cs&lt;/span&gt;&lt;/strong&gt;&lt;/span&gt;&lt;/li&gt;&lt;li style=&quot;box-sizing: border-box; border: 0px; font-size: 15px; font-style: inherit; font-weight: inherit; margin: 0px; outline: 0px; padding: 0px; vertical-align: baseline;&quot;&gt;&lt;span style=&quot;box-sizing: border-box; border: 0px; font-size: 15px; font-style: inherit; font-weight: inherit; margin: 0px; outline: 0px; padding: 0px; vertical-align: baseline; color: rgb(0, 0, 255);&quot;&gt;&lt;strong style=&quot;box-sizing: border-box; border: 0px; font-size: 15px; font-style: inherit; font-weight: bolder; margin: 0px; outline: 0px; padding: 0px; vertical-align: baseline;&quot;&gt;&lt;span style=&quot;box-sizing: border-box; border: 0px; font-size: 15px; font-style: inherit; font-weight: inherit; margin: 0px; outline: 0px; padding: 0px; vertical-align: baseline; font-family: arial, helvetica, sans-serif;&quot;&gt;&lt;span style=&quot;box-sizing: border-box; border: 0px; font-size: 15px; font-style: inherit; font-weight: inherit; margin: 0px; outline: 0px; padding: 0px; vertical-align: baseline; color: rgb(255, 0, 0);&quot;&gt;Director:&lt;/span&gt;&lt;span&gt;&amp;nbsp;&lt;/span&gt;ReportDirector.cs&lt;/span&gt;&lt;/strong&gt;&lt;/span&gt;&lt;/li&gt;&lt;li style=&quot;box-sizing: border-box; border: 0px; font-size: 15px; font-style: inherit; font-weight: inherit; margin: 0px; outline: 0px; padding: 0px; vertical-align: baseline;&quot;&gt;&lt;span style=&quot;box-sizing: border-box; border: 0px; font-size: 15px; font-style: inherit; font-weight: inherit; margin: 0px; outline: 0px; padding: 0px; vertical-align: baseline; color: rgb(0, 0, 255);&quot;&gt;&lt;strong style=&quot;box-sizing: border-box; border: 0px; font-size: 15px; font-style: inherit; font-weight: bolder; margin: 0px; outline: 0px; padding: 0px; vertical-align: baseline;&quot;&gt;&lt;span style=&quot;box-sizing: border-box; border: 0px; font-size: 15px; font-style: inherit; font-weight: inherit; margin: 0px; outline: 0px; padding: 0px; vertical-align: baseline; font-family: arial, helvetica, sans-serif;&quot;&gt;&lt;span style=&quot;box-sizing: border-box; border: 0px; font-size: 15px; font-style: inherit; font-weight: inherit; margin: 0px; outline: 0px; padding: 0px; vertical-align: baseline; color: rgb(255, 0, 0);&quot;&gt;Product:&lt;/span&gt;&lt;span&gt;&amp;nbsp;&lt;/span&gt;Report.cs&lt;/span&gt;&lt;/strong&gt;&lt;/span&gt;&lt;/li&gt;&lt;/ol&gt;&lt;h5 style=&quot;box-sizing: border-box; border: 0px; font-size: 1.2rem; font-style: normal; font-weight: 500; margin: 0px 0px 20px; outline: 0px; padding: 0px; vertical-align: baseline; clear: both; color: rgb(58, 58, 58); line-height: 1.6; font-family: -apple-system, BlinkMacSystemFont, &amp;quot;Segoe UI&amp;quot;, Roboto, &amp;quot;Helvetica Neue&amp;quot;, Arial, &amp;quot;Noto Sans&amp;quot;, sans-serif, &amp;quot;Apple Color Emoji&amp;quot;, &amp;quot;Segoe UI Emoji&amp;quot;, &amp;quot;Segoe UI Symbol&amp;quot;, &amp;quot;Noto Color Emoji&amp;quot;; font-variant-ligatures: normal; font-variant-caps: normal; letter-spacing: normal; orphans: 2; text-indent: 0px; text-transform: none; widows: 2; word-spacing: 0px; -webkit-text-stroke-width: 0px; background-color: rgb(255, 255, 255); text-decoration-thickness: initial; text-decoration-style: initial; text-decoration-color: initial; text-align: justify;&quot;&gt;&lt;strong style=&quot;box-sizing: border-box; border: 0px; font-size: 18px; font-style: inherit; font-weight: bolder; margin: 0px; outline: 0px; padding: 0px; vertical-align: baseline;&quot;&gt;&lt;span style=&quot;box-sizing: border-box; border: 0px; font-size: 18px; font-style: inherit; font-weight: inherit; margin: 0px; outline: 0px; padding: 0px; vertical-align: baseline; font-family: arial, helvetica, sans-serif; color: rgb(0, 0, 0);&quot;&gt;Advantages of Builder Design Pattern:&lt;/span&gt;&lt;/strong&gt;&lt;/h5&gt;&lt;ol style=&quot;box-sizing: border-box; border: 0px; font-size: 15px; font-style: normal; font-weight: 400; margin: 0px 0px 1rem 3em; outline: 0px; padding: 0px; vertical-align: baseline; list-style: decimal; color: rgb(33, 37, 41); font-family: -apple-system, BlinkMacSystemFont, &amp;quot;Segoe UI&amp;quot;, Roboto, &amp;quot;Helvetica Neue&amp;quot;, Arial, &amp;quot;Noto Sans&amp;quot;, sans-serif, &amp;quot;Apple Color Emoji&amp;quot;, &amp;quot;Segoe UI Emoji&amp;quot;, &amp;quot;Segoe UI Symbol&amp;quot;, &amp;quot;Noto Color Emoji&amp;quot;; font-variant-ligatures: normal; font-variant-caps: normal; letter-spacing: normal; orphans: 2; text-align: left; text-indent: 0px; text-transform: none; widows: 2; word-spacing: 0px; -webkit-text-stroke-width: 0px; background-color: rgb(255, 255, 255); text-decoration-thickness: initial; text-decoration-style: initial; text-decoration-color: initial;&quot;&gt;&lt;li style=&quot;box-sizing: border-box; border: 0px; font-size: 15px; font-style: inherit; font-weight: inherit; margin: 0px; outline: 0px; padding: 0px; vertical-align: baseline; text-align: justify;&quot;&gt;&lt;span style=&quot;box-sizing: border-box; border: 0px; font-size: 15px; font-style: inherit; font-weight: inherit; margin: 0px; outline: 0px; padding: 0px; vertical-align: baseline; font-family: arial, helvetica, sans-serif; color: rgb(0, 0, 0);&quot;&gt;With Builder Design Pattern, the Application Code is more Maintainable and Readable.&lt;/span&gt;&lt;/li&gt;&lt;li style=&quot;box-sizing: border-box; border: 0px; font-size: 15px; font-style: inherit; font-weight: inherit; margin: 0px; outline: 0px; padding: 0px; vertical-align: baseline; text-align: justify;&quot;&gt;&lt;span style=&quot;box-sizing: border-box; border: 0px; font-size: 15px; font-style: inherit; font-weight: inherit; margin: 0px; outline: 0px; padding: 0px; vertical-align: baseline; font-family: arial, helvetica, sans-serif; color: rgb(0, 0, 0);&quot;&gt;Less prone to errors as we have a method that returns the finally constructed object.&lt;/span&gt;&lt;/li&gt;&lt;/ol&gt;&lt;h5 style=&quot;box-sizing: border-box; border: 0px; font-size: 1.2rem; font-style: normal; font-weight: 500; margin: 0px 0px 20px; outline: 0px; padding: 0px; vertical-align: baseline; clear: both; color: rgb(58, 58, 58); line-height: 1.6; font-family: -apple-system, BlinkMacSystemFont, &amp;quot;Segoe UI&amp;quot;, Roboto, &amp;quot;Helvetica Neue&amp;quot;, Arial, &amp;quot;Noto Sans&amp;quot;, sans-serif, &amp;quot;Apple Color Emoji&amp;quot;, &amp;quot;Segoe UI Emoji&amp;quot;, &amp;quot;Segoe UI Symbol&amp;quot;, &amp;quot;Noto Color Emoji&amp;quot;; font-variant-ligatures: normal; font-variant-caps: normal; letter-spacing: normal; orphans: 2; text-indent: 0px; text-transform: none; widows: 2; word-spacing: 0px; -webkit-text-stroke-width: 0px; background-color: rgb(255, 255, 255); text-decoration-thickness: initial; text-decoration-style: initial; text-decoration-color: initial; text-align: justify;&quot;&gt;&lt;strong style=&quot;box-sizing: border-box; border: 0px; font-size: 18px; font-style: inherit; font-weight: bolder; margin: 0px; outline: 0px; padding: 0px; vertical-align: baseline;&quot;&gt;&lt;span style=&quot;box-sizing: border-box; border: 0px; font-size: 18px; font-style: inherit; font-weight: inherit; margin: 0px; outline: 0px; padding: 0px; vertical-align: baseline; font-family: arial, helvetica, sans-serif; color: rgb(0, 0, 0);&quot;&gt;Disadvantages of Builder Design Pattern:&lt;/span&gt;&lt;/strong&gt;&lt;/h5&gt;&lt;ol style=&quot;box-sizing: border-box; border: 0px; font-size: 15px; font-style: normal; font-weight: 400; margin: 0px 0px 1rem 3em; outline: 0px; padding: 0px; vertical-align: baseline; list-style: decimal; color: rgb(33, 37, 41); font-family: -apple-system, BlinkMacSystemFont, &amp;quot;Segoe UI&amp;quot;, Roboto, &amp;quot;Helvetica Neue&amp;quot;, Arial, &amp;quot;Noto Sans&amp;quot;, sans-serif, &amp;quot;Apple Color Emoji&amp;quot;, &amp;quot;Segoe UI Emoji&amp;quot;, &amp;quot;Segoe UI Symbol&amp;quot;, &amp;quot;Noto Color Emoji&amp;quot;; font-variant-ligatures: normal; font-variant-caps: normal; letter-spacing: normal; orphans: 2; text-align: left; text-indent: 0px; text-transform: none; widows: 2; word-spacing: 0px; -webkit-text-stroke-width: 0px; background-color: rgb(255, 255, 255); text-decoration-thickness: initial; text-decoration-style: initial; text-decoration-color: initial;&quot;&gt;&lt;li style=&quot;box-sizing: border-box; border: 0px; font-size: 15px; font-style: inherit; font-weight: inherit; margin: 0px; outline: 0px; padding: 0px; vertical-align: baseline; text-align: justify;&quot;&gt;&lt;span style=&quot;box-sizing: border-box; border: 0px; font-size: 15px; font-style: inherit; font-weight: inherit; margin: 0px; outline: 0px; padding: 0px; vertical-align: baseline; font-family: arial, helvetica, sans-serif; color: rgb(0, 0, 0);&quot;&gt;The number of lines of code increases in the builder design patterns, but it makes sense as the effort pays off in terms of maintainability and readability.&lt;/span&gt;&lt;/li&gt;&lt;/ol&gt;&lt;h5 style=&quot;box-sizing: border-box; border: 0px; font-size: 1.2rem; font-style: normal; font-weight: 500; margin: 0px 0px 20px; outline: 0px; padding: 0px; vertical-align: baseline; clear: both; color: rgb(58, 58, 58); line-height: 1.6; font-family: -apple-system, BlinkMacSystemFont, &amp;quot;Segoe UI&amp;quot;, Roboto, &amp;quot;Helvetica Neue&amp;quot;, Arial, &amp;quot;Noto Sans&amp;quot;, sans-serif, &amp;quot;Apple Color Emoji&amp;quot;, &amp;quot;Segoe UI Emoji&amp;quot;, &amp;quot;Segoe UI Symbol&amp;quot;, &amp;quot;Noto Color Emoji&amp;quot;; font-variant-ligatures: normal; font-variant-caps: normal; letter-spacing: normal; orphans: 2; text-align: left; text-indent: 0px; text-transform: none; widows: 2; word-spacing: 0px; -webkit-text-stroke-width: 0px; background-color: rgb(255, 255, 255); text-decoration-thickness: initial; text-decoration-style: initial; text-decoration-color: initial;&quot;&gt;&lt;strong style=&quot;box-sizing: border-box; border: 0px; font-size: 18px; font-style: inherit; font-weight: bolder; margin: 0px; outline: 0px; padding: 0px; vertical-align: baseline;&quot;&gt;&lt;span style=&quot;box-sizing: border-box; border: 0px; font-size: 18px; font-style: inherit; font-weight: inherit; margin: 0px; outline: 0px; padding: 0px; vertical-align: baseline; font-family: arial, helvetica, sans-serif; color: rgb(0, 0, 0);&quot;&gt;When to use the Builder Design Pattern in Real-Time Applications?&lt;/span&gt;&lt;/strong&gt;&lt;/h5&gt;&lt;p style=&quot;box-sizing: border-box; border: 0px; font-size: 15px; font-style: normal; font-weight: 400; margin: 0px 0px 1.6em; outline: 0px; padding: 0px; vertical-align: baseline; color: rgb(33, 37, 41); font-family: -apple-system, BlinkMacSystemFont, &amp;quot;Segoe UI&amp;quot;, Roboto, &amp;quot;Helvetica Neue&amp;quot;, Arial, &amp;quot;Noto Sans&amp;quot;, sans-serif, &amp;quot;Apple Color Emoji&amp;quot;, &amp;quot;Segoe UI Emoji&amp;quot;, &amp;quot;Segoe UI Symbol&amp;quot;, &amp;quot;Noto Color Emoji&amp;quot;; font-variant-ligatures: normal; font-variant-caps: normal; letter-spacing: normal; orphans: 2; text-align: left; text-indent: 0px; text-transform: none; widows: 2; word-spacing: 0px; -webkit-text-stroke-width: 0px; background-color: rgb(255, 255, 255); text-decoration-thickness: initial; text-decoration-style: initial; text-decoration-color: initial;&quot;&gt;&lt;span style=&quot;box-sizing: border-box; border: 0px; font-size: 15px; font-style: inherit; font-weight: inherit; margin: 0px; outline: 0px; padding: 0px; vertical-align: baseline; font-family: arial, helvetica, sans-serif; color: rgb(0, 0, 0);&quot;&gt;We need to use the Builder Design Pattern in C# in the following scenarios.&lt;/span&gt;&lt;/p&gt;&lt;ol style=&quot;box-sizing: border-box; border: 0px; font-size: 15px; font-style: normal; font-weight: 400; margin: 0px 0px 1rem 3em; outline: 0px; padding: 0px; vertical-align: baseline; list-style: decimal; color: rgb(33, 37, 41); font-family: -apple-system, BlinkMacSystemFont, &amp;quot;Segoe UI&amp;quot;, Roboto, &amp;quot;Helvetica Neue&amp;quot;, Arial, &amp;quot;Noto Sans&amp;quot;, sans-serif, &amp;quot;Apple Color Emoji&amp;quot;, &amp;quot;Segoe UI Emoji&amp;quot;, &amp;quot;Segoe UI Symbol&amp;quot;, &amp;quot;Noto Color Emoji&amp;quot;; font-variant-ligatures: normal; font-variant-caps: normal; letter-spacing: normal; orphans: 2; text-align: left; text-indent: 0px; text-transform: none; widows: 2; word-spacing: 0px; -webkit-text-stroke-width: 0px; background-color: rgb(255, 255, 255); text-decoration-thickness: initial; text-decoration-style: initial; text-decoration-color: initial;&quot;&gt;&lt;li style=&quot;box-sizing: border-box; border: 0px; font-size: 15px; font-style: inherit; font-weight: inherit; margin: 0px; outline: 0px; padding: 0px; vertical-align: baseline;&quot;&gt;&lt;span style=&quot;box-sizing: border-box; border: 0px; font-size: 15px; font-style: inherit; font-weight: inherit; margin: 0px; outline: 0px; padding: 0px; vertical-align: baseline; font-family: arial, helvetica, sans-serif; color: rgb(0, 0, 0);&quot;&gt;When we want to make a complex object by specifying only its type and content. The object is constructed from the details of its construction process.&lt;/span&gt;&lt;/li&gt;&lt;li style=&quot;box-sizing: border-box; border: 0px; font-size: 15px; font-style: inherit; font-weight: inherit; margin: 0px; outline: 0px; padding: 0px; vertical-align: baseline;&quot;&gt;&lt;span style=&quot;box-sizing: border-box; border: 0px; font-size: 15px; font-style: inherit; font-weight: inherit; margin: 0px; outline: 0px; padding: 0px; vertical-align: baseline; font-family: arial, helvetica, sans-serif; color: rgb(0, 0, 0);&quot;&gt;When we decouple the process of building a complex object from the parts that make up the object.&lt;/span&gt;&lt;/li&gt;&lt;li style=&quot;box-sizing: border-box; border: 0px; font-size: 15px; font-style: inherit; font-weight: inherit; margin: 0px; outline: 0px; padding: 0px; vertical-align: baseline;&quot;&gt;&lt;span style=&quot;box-sizing: border-box; border: 0px; font-size: 15px; font-style: inherit; font-weight: inherit; margin: 0px; outline: 0px; padding: 0px; vertical-align: baseline; font-family: arial, helvetica, sans-serif; color: rgb(0, 0, 0);&quot;&gt;When we want to isolate the code for construction and representation.&lt;/span&gt;&lt;/li&gt;&lt;/ol&gt;" style="text;whiteSpace=wrap;html=1;" vertex="1" parent="1">
                    <mxGeometry x="260" y="1310" width="560" height="990" as="geometry"/>
                </mxCell>
            </root>
        </mxGraphModel>
    </diagram>
    <diagram id="KvUhVLTNB-h-ksje_Koc" name="OrderFlow">
        <mxGraphModel dx="1103" dy="446" grid="1" gridSize="10" guides="1" tooltips="1" connect="1" arrows="1" fold="1" page="1" pageScale="1" pageWidth="850" pageHeight="1100" math="0" shadow="0">
            <root>
                <mxCell id="0"/>
                <mxCell id="1" parent="0"/>
            </root>
        </mxGraphModel>
    </diagram>
    <diagram id="mY_KLUClVINl0fQ-s9Sm" name="Preview">
        <mxGraphModel dx="1404" dy="567" grid="1" gridSize="10" guides="1" tooltips="1" connect="1" arrows="1" fold="1" page="1" pageScale="1" pageWidth="850" pageHeight="1100" math="0" shadow="0">
            <root>
                <mxCell id="0"/>
                <mxCell id="1" parent="0"/>
            </root>
        </mxGraphModel>
    </diagram>
</mxfile>